<?xml version="1.0" encoding="utf-8"?>
<!-- Generator: Adobe Illustrator 21.0.0, SVG Export Plug-In . SVG Version: 6.00 Build 0)  -->
<svg version="1.1" id="Layer_1" xmlns="http://www.w3.org/2000/svg" xmlns:xlink="http://www.w3.org/1999/xlink" x="0px" y="0px"
	 viewBox="0 0 100 100" style="enable-background:new 0 0 100 100;" xml:space="preserve">
<style type="text/css">
	.st0{fill:#FFFFFF;}
</style>
<g>
	<rect x="18.6" y="72.5" class="st0" width="62.8" height="3.5"/>
	<path class="st0" d="M74.4,24H25.6c-3.9,0-7,3.1-7,7v30.4c0,3.9,3.1,7,7,7h48.8c3.8,0,7-3.1,7-7V31C81.4,27.1,78.3,24,74.4,24z
		 M77.9,61.3c0,1.9-1.6,3.5-3.5,3.5H25.6c-1.9,0-3.5-1.6-3.5-3.5V31c0-1.9,1.6-3.5,3.5-3.5h48.8c1.9,0,3.5,1.6,3.5,3.5V61.3z"/>
	<polygon class="st0" points="32.1,48.3 28.6,48.3 28.6,54.8 28.6,58.3 32.1,58.3 38.6,58.3 38.6,54.8 32.1,54.8 	"/>
	<polygon class="st0" points="61.6,34 61.6,37.5 68.1,37.5 68.1,44 71.6,44 71.6,37.5 71.6,34 68.1,34 	"/>
</g>
</svg>
