<?xml version="1.0" encoding="utf-8"?>
<!-- Generator: Adobe Illustrator 21.0.0, SVG Export Plug-In . SVG Version: 6.00 Build 0)  -->
<svg version="1.1" id="Layer_1" xmlns="http://www.w3.org/2000/svg" xmlns:xlink="http://www.w3.org/1999/xlink" x="0px" y="0px"
	 viewBox="0 0 100 100" style="enable-background:new 0 0 100 100;" xml:space="preserve">
<style type="text/css">
	.st0{fill:#FFFFFF;}
</style>
<g>
	<path class="st0" d="M66,28H33.7c-2.8,0-5,2.3-5,5v32.3c0,2.8,2.3,5,5,5H66c2.8,0,5-2.3,5-5V33C71,30.3,68.8,28,66,28z M67,65.3
		c0,0.6-0.5,1-1,1H33.7c-0.6,0-1-0.5-1-1V33c0-0.6,0.5-1,1-1H66c0.6,0,1,0.5,1,1V65.3z"/>
	<path class="st0" d="M14.4,38c0,1.1,0.9,2,2,2h8.3v-4h-8.3C15.3,36,14.4,36.9,14.4,38z"/>
	<path class="st0" d="M14.4,46c0,1.1,0.9,2,2,2h8.3v-4h-8.3C15.3,44,14.4,44.9,14.4,46z"/>
	<path class="st0" d="M14.4,54c0,1.1,0.9,2,2,2h8.3v-4h-8.3C15.3,52,14.4,52.9,14.4,54z"/>
	<path class="st0" d="M14.4,62c0,1.1,0.9,2,2,2h8.3v-4h-8.3C15.3,60,14.4,60.9,14.4,62z"/>
	<path class="st0" d="M83.6,60h-8.3v4h8.3c1.1,0,2-0.9,2-2S84.7,60,83.6,60z"/>
	<path class="st0" d="M83.6,52h-8.3v4h8.3c1.1,0,2-0.9,2-2S84.7,52,83.6,52z"/>
	<path class="st0" d="M83.6,44h-8.3v4h8.3c1.1,0,2-0.9,2-2S84.7,44,83.6,44z"/>
	<path class="st0" d="M85.6,38c0-1.1-0.9-2-2-2h-8.3v4h8.3C84.7,40,85.6,39.1,85.6,38z"/>
	<path class="st0" d="M64,16.4c0-1.1-0.9-2-2-2s-2,0.9-2,2v8.3h4V16.4z"/>
	<path class="st0" d="M56,16.4c0-1.1-0.9-2-2-2s-2,0.9-2,2v8.3h4V16.4z"/>
	<path class="st0" d="M48,16.4c0-1.1-0.9-2-2-2s-2,0.9-2,2v8.3h4V16.4z"/>
	<path class="st0" d="M40,16.4c0-1.1-0.9-2-2-2s-2,0.9-2,2v8.3h4V16.4z"/>
	<path class="st0" d="M36,83.6c0,1.1,0.9,2,2,2s2-0.9,2-2v-8.3h-4V83.6z"/>
	<path class="st0" d="M44,83.6c0,1.1,0.9,2,2,2s2-0.9,2-2v-8.3h-4V83.6z"/>
	<path class="st0" d="M52,83.6c0,1.1,0.9,2,2,2s2-0.9,2-2v-8.3h-4V83.6z"/>
	<path class="st0" d="M60,83.6c0,1.1,0.9,2,2,2s2-0.9,2-2v-8.3h-4V83.6z"/>
</g>
</svg>
