<?xml version="1.0" encoding="utf-8"?>
<!-- Generator: Adobe Illustrator 21.0.0, SVG Export Plug-In . SVG Version: 6.00 Build 0)  -->
<svg version="1.1" id="Layer_1" xmlns="http://www.w3.org/2000/svg" xmlns:xlink="http://www.w3.org/1999/xlink" x="0px" y="0px"
	 viewBox="0 0 100 100" style="enable-background:new 0 0 100 100;" xml:space="preserve">
<style type="text/css">
	.st0{fill:#FFFFFF;}
</style>
<g>
	<path class="st0" d="M78,70.5l-8.3-33.1c-0.7-2.7-3.1-4.6-5.9-4.6h-2.5c-0.2-6-5.2-10.9-11.3-10.9c-6.1,0-11.1,4.9-11.3,10.9h-2.5
		c-2.8,0-5.2,1.9-5.9,4.6L22,70.5c-0.5,1.8-0.1,3.8,1.1,5.3c1.2,1.5,2.9,2.4,4.8,2.4h44.2c1.9,0,3.7-0.9,4.8-2.4
		C78.1,74.2,78.5,72.3,78,70.5z M50,25.9c3.9,0,7.1,3.1,7.3,6.9H42.7C42.9,29,46.1,25.9,50,25.9z M73.7,73.3c-0.4,0.5-1,0.8-1.7,0.8
		H27.9c-0.7,0-1.3-0.3-1.7-0.8s-0.5-1.2-0.4-1.8l8.3-33.1c0.2-0.9,1.1-1.6,2-1.6h27.5c1,0,1.8,0.6,2,1.6l8.3,33.1
		C74.3,72.1,74.1,72.8,73.7,73.3z"/>
	<path class="st0" d="M50,46.3c-5.1,0-9.3,4.2-9.3,9.3s4.2,9.3,9.3,9.3s9.3-4.2,9.3-9.3S55.1,46.3,50,46.3z M50,60.8
		c-2.9,0-5.3-2.4-5.3-5.3s2.4-5.3,5.3-5.3c2.9,0,5.3,2.4,5.3,5.3S52.9,60.8,50,60.8z"/>
</g>
</svg>
