<?xml version="1.0" encoding="utf-8"?>
<!-- Generator: Adobe Illustrator 21.0.0, SVG Export Plug-In . SVG Version: 6.00 Build 0)  -->
<svg version="1.1" id="Layer_1" xmlns="http://www.w3.org/2000/svg" xmlns:xlink="http://www.w3.org/1999/xlink" x="0px" y="0px"
	 viewBox="0 0 100 100" style="enable-background:new 0 0 100 100;" xml:space="preserve">
<style type="text/css">
	.st0{fill:#FFFFFF;}
</style>
<g>
	<path class="st0" d="M70,32.6H30c-2.8,0-5,2.3-5,5v24.8c0,2.8,2.3,5,5,5H70c2.8,0,5-2.3,5-5V37.7C75,34.9,72.7,32.6,70,32.6z
		 M71,62.5c0,0.6-0.5,1-1,1H30c-0.6,0-1-0.5-1-1V37.7c0-0.6,0.5-1,1-1H70c0.6,0,1,0.5,1,1V62.5z"/>
	<path class="st0" d="M67.2,20.4c0-1.1-0.9-2-2-2s-2,0.9-2,2v8.3h4V20.4z"/>
	<path class="st0" d="M57.2,20.4c0-1.1-0.9-2-2-2s-2,0.9-2,2v8.3h4V20.4z"/>
	<path class="st0" d="M47.2,20.4c0-1.1-0.9-2-2-2s-2,0.9-2,2v8.3h4V20.4z"/>
	<path class="st0" d="M37.2,20.4c0-1.1-0.9-2-2-2s-2,0.9-2,2v8.3h4V20.4z"/>
	<path class="st0" d="M33.2,79.6c0,1.1,0.9,2,2,2s2-0.9,2-2v-8.3h-4V79.6z"/>
	<path class="st0" d="M43.2,79.6c0,1.1,0.9,2,2,2s2-0.9,2-2v-8.3h-4V79.6z"/>
	<path class="st0" d="M53.2,79.6c0,1.1,0.9,2,2,2s2-0.9,2-2v-8.3h-4V79.6z"/>
	<path class="st0" d="M63.2,79.6c0,1.1,0.9,2,2,2s2-0.9,2-2v-8.3h-4V79.6z"/>
</g>
</svg>
