<?xml version="1.0" encoding="utf-8"?>
<!-- Generator: Adobe Illustrator 21.0.0, SVG Export Plug-In . SVG Version: 6.00 Build 0)  -->
<svg version="1.1" id="Layer_1" xmlns="http://www.w3.org/2000/svg" xmlns:xlink="http://www.w3.org/1999/xlink" x="0px" y="0px"
	 viewBox="0 0 100 100" style="enable-background:new 0 0 100 100;" xml:space="preserve">
<style type="text/css">
	.st0{fill:#FFFFFF;}
</style>
<g>
	<path class="st0" d="M80.3,50.5v-9.9c0-0.9-0.3-1.8-0.8-2.5l-6.4-13.7c-0.3-0.6-1.1-2-1.1-2c-0.8-0.9-2-1.5-3.4-1.5H31.4
		c-1.3,0-2.5,0.6-3.4,1.5l-1.1,2L20.5,38c-0.5,0.7-0.8,1.6-0.8,2.6v9.9c0,2.6,3.9,4.7,3.9,4.7l-3.2,6.7c-0.5,0.7-0.8,1.6-0.8,2.6
		v9.9c0,2.6,2.1,4.7,4.7,4.7h51.3c2.6,0,4.7-2.1,4.7-4.7v-9.9c0-0.9-0.3-1.8-0.8-2.5l-3.2-6.8C76.4,55.2,80.3,53.1,80.3,50.5z
		 M30.6,24.8c0.2-0.2,0.5-0.3,0.8-0.3h37.3c0.3,0,0.6,0.1,0.8,0.3l5.2,11.2H25.3L30.6,24.8z M76.8,64.5v9.9c0,0.6-0.5,1.2-1.2,1.2
		H24.4c-0.6,0-1.2-0.5-1.2-1.2v-9.9c0-0.6,0.5-1.2,1.2-1.2h51.3C76.3,63.3,76.8,63.8,76.8,64.5z M74.7,59.8H25.3l2.2-4.6h45
		L74.7,59.8z M76.8,50.5c0,0.6-0.5,1.2-1.2,1.2H24.4c-0.6,0-1.2-0.5-1.2-1.2v-9.9c0-0.6,0.5-1.2,1.2-1.2h51.3c0.6,0,1.2,0.5,1.2,1.2
		V50.5z"/>
	<circle class="st0" cx="70.8" cy="46.2" r="2.4"/>
	<circle class="st0" cx="70.8" cy="69.2" r="2.4"/>
</g>
</svg>
